<svg width="410" height="404" viewBox="0 0 410 404" fill="none" xmlns="http://www.w3.org/2000/svg">
  <path d="M399.641 59.5246L216.296 388.54C213.844 392.903 208.065 394.133 204.122 391.376C202.83 390.466 201.802 389.215 201.152 387.764L10.3656 59.5246C7.91389 55.1609 9.4937 49.5143 13.8574 47.0626C15.215 46.3004 16.7419 45.8984 18.2963 45.8984H391.71C396.233 45.8984 399.91 49.5757 399.91 54.0984C399.91 55.6528 399.508 57.1797 398.745 58.5373L399.641 59.5246Z" fill="url(#paint0_linear)"/>
  <path d="M292.965 1.57422H117.043C112.52 1.57422 108.843 5.25157 108.843 9.77422C108.843 11.3286 109.245 12.8555 110.008 14.2131L203.299 180.735C205.751 185.099 211.53 186.329 215.473 183.571C216.765 182.661 217.793 181.41 218.443 179.959L310.062 14.2131C312.514 9.84942 310.934 4.20287 306.57 1.75111C305.213 0.988932 303.686 0.586914 302.131 0.586914L292.965 1.57422Z" fill="url(#paint1_linear)"/>
  <defs>
    <linearGradient id="paint0_linear" x1="6.00017" y1="32.9999" x2="235" y2="344" gradientUnits="userSpaceOnUse">
      <stop stop-color="#41D1FF"/>
      <stop offset="1" stop-color="#BD34FE"/>
    </linearGradient>
    <linearGradient id="paint1_linear" x1="115" y1="0.999939" x2="298" y2="164.5" gradientUnits="userSpaceOnUse">
      <stop stop-color="#FFEA83"/>
      <stop offset="0.0833333" stop-color="#FFDD35"/>
      <stop offset="1" stop-color="#FFA800"/>
    </linearGradient>
  </defs>
</svg>

